<svg xmlns="http://www.w3.org/2000/svg" viewBox="0 0 1200 675" width="1200" height="675" role="img" aria-label="One thread tied into three lengths: a half, three tenths and a fifth"><rect width="1200" height="675" fill="#F6E7A1"/><rect x="24" y="24" width="1152" height="627" rx="16" fill="#FFFFFF" stroke="#EBD77A"/><path d="M80 338H600" fill="none" stroke="#2B2F8F" stroke-width="14"/><path d="M600 338H912" fill="none" stroke="#4F5280" stroke-width="14"/><path d="M912 338H1120" fill="none" stroke="#1B1E5C" stroke-width="22"/><path d="M912 338H1120" fill="none" stroke="#FFFFFF" stroke-width="2" stroke-dasharray="14 22" opacity=".45"/><g transform="translate(554.4 292.4) scale(3.8)" fill="none" stroke="#2B2F8F" stroke-width="2" stroke-linecap="butt"><path d="M12 2V4.8M12 8.4V22"/><path d="M2.5 12H8.4C8.4 8.4 10 6.6 12 6.6C14 6.6 15.6 8.4 15.6 12H21.5"/><path d="M15.6 12C15.6 13.6 14.6 14.6 13.5 14.9M10.5 14.9C9.4 14.6 8.4 13.6 8.4 12"/></g><g transform="translate(866.4 292.4) scale(3.8)" fill="none" stroke="#1B1E5C" stroke-width="2" stroke-linecap="butt"><path d="M12 2V4.8M12 8.4V22"/><path d="M2.5 12H8.4C8.4 8.4 10 6.6 12 6.6C14 6.6 15.6 8.4 15.6 12H21.5"/><path d="M15.6 12C15.6 13.6 14.6 14.6 13.5 14.9M10.5 14.9C9.4 14.6 8.4 13.6 8.4 12"/></g></svg>